{"title":"Spectre.2015.REAL.HD-TS.XVID.AC3.HQ.Hive-CM8","uid":12816847,"size":2327473808,"categoryP":"video","categoryS":"movies","magnet":"?xt=urn:btih:74ee843054c62960fe2c3b34779532c9aec053a2&amp;dn=Spectre.2015.REAL.HD-TS.XVID.AC3.HQ.Hive-CM8&amp;tr=udp%3A%2F%2Ftracker.leechers-paradise.org%3A6969&amp;tr=udp%3A%2F%2Fzer0day.ch%3A1337&amp;tr=udp%3A%2F%2Fopen.demonii.com%3A1337&amp;tr=udp%3A%2F%2Ftracker.coppersurfer.tk%3A6969&amp;tr=udp%3A%2F%2Fexodus.desync.com%3A6969","seeders":9,"leechers":4,"uploader":"xxxlavalxxx","files":5,"time":1448241763,"description":"http://extraimago.com/image/C5N\r\n \nhttp://www.imdb.com/title/tt2379713/\r\n\r\n\r\nA cryptic message from Bond's past sends him on a trail to uncover a sinister organization. While M battles political forces to keep the secret service alive, Bond peels back the layers of deceit to reveal the terrible truth behind SPECTRE.\r\n\r\nDirector: Sam Mendes\r\nWriters: John Logan (screenplay), Neal Purvis (screenplay)\r\nStars: Daniel Craig, Christoph Waltz, Léa Seydoux \r\nGenres: Action | Adventure | Thriller\r\nCountry: UK | USA\r\nLanguage: English | Spanish | Italian | German | French\r\n\r\n\r\nSpectre.2015.REAL.HD-TS.XVID.AC3.HQ.Hive-CM8\r\n\r\nThx Hive\r\n\r\nCM8 Doing It Right The First Time \r\n\r\nSources:\r\n\r\nVideo: Unmarked 720p Mandarin Telecine\r\nAudio: Sweet Line Big Thx to S4NDM4N \r\n\r\nNotes:\r\n\r\nmay be last on this one, but i only do quality stuff, and i dont sell you mic as line audio\r\nEncoded 1 week for you guys, a lot of time went into this\r\ntried playing with latino vid for 2 days, too dark, deleted\r\ntried playing with russian vid for 2 days, not good enough,deleted\r\ntried playing with 4 different mandarin Telecine with all kind of different watermarkings to merge to one good, were jerky deleted\r\n\r\nfinally got the good one, no kind of watermarkings, no floating one no constant ones, simply great\r\n\r\nEncode:\r\n\r\nvideo needed fixing brightness,contrast and a lot of fixing colours\r\nfound a very nice way, looks awesome now, pretty similar to my iron man 3 release\r\n\r\nsince the mandarin telecine came with mic audio and cpl groups sold it as line eventhough it clearly isnt i asked S4NDM4N to get me a real line\r\nfor this awesome release which we got so now all is perfect together\r\naudio is lipsynced to my video\r\n\r\nhardcoded original english subs for foreign parts only too, while i was at it-seen at last pic below\r\n\r\nthis will do me till retail, not even a web-dl is needed in this case\r\nenjoy\r\n\r\nVideo: 720x352 @bitrate 3000-8000\r\nAudio: English Line Stereo 2.0\r\nSample: yes 2 included voice and action scene\r\n\r\n\r\nPS:\r\nguys cpl screeners are out you know where to find me\r\n&quot;the walk&quot; &quot;99 homes&quot; are hottest so far, but am taking any other too\r\n\r\n \nhttp://www.imdb.com/title/tt2379713/\r\n\r\n\r\n\r\nGeneral\r\nFormat                         : AVI\r\nFormat/Info                    : Audio Video Interleave\r\nFormat profile                 : OpenDML\r\nFormat settings                : rec\r\nFile size                      : 2.14 GiB\r\nDuration                       : 2h 28mn\r\nOverall bit rate               : 2 061 Kbps\r\nWriting application            : AVI-Mux GUI 1.17.7, Aug  8 2006  20:59:17\r\n\r\nVideo\r\nID                             : 0\r\nFormat                         : MPEG-4 Visual\r\nFormat profile                 : Advanced   \r\nFormat settings, BVOP          : 2\r\nFormat settings, QPel          : Yes\r\nFormat settings, GMC           : No warppoints\r\nFormat settings, Matrix        : Default (H.263)\r\nMuxing mode                    : Packed bitstream\r\nCodec ID                       : XVID\r\nCodec ID/Hint                  : XviD\r\nDuration                       : 2h 28mn\r\nBit rate                       : 1 799 Kbps\r\nWidth                          : 720 pixels\r\nHeight                         : 352 pixels\r\nDisplay aspect ratio           : 2.045\r\nFrame rate                     : 23.976 fps\r\nColor space                    : YUV\r\nChroma subsampling             : 4:2:0\r\nBit depth                      : 8 bits\r\nScan type                      : Progressive\r\nCompression mode               : Lossy\r\nBits/(Pixel*Frame)             : 0.296\r\nStream size                    : 1.87 GiB (87%)\r\nWriting library                : XviD 1.2.1 (UTC 2008-12-04)\r\n\r\nAudio\r\nID                             : 1\r\nFormat                         : AC-3\r\nFormat/Info                    : Audio Coding 3\r\nMode extension                 : CM (complete main)\r\nFormat settings, Endianness    : Big\r\nCodec ID                       : 2000\r\nDuration                       : 2h 28mn\r\nBit rate mode                  : Constant\r\nBit rate                       : 256 Kbps\r\nChannel(s)                     : 2 channels\r\nChannel positions              : Front: L R\r\nSampling rate                  : 48.0 KHz\r\nBit depth                      : 16 bits\r\nCompression mode               : Lossy\r\nStream size                    : 272 MiB (12%)\r\nAlignment                      : Aligned on interleaves\r\nInterleave, duration           : 64 ms (1.53 video frames)\r\nInterleave, preload duration   : 192 ms\r\n\r\n\r\nGreetz\r\n\r\nSugarB,iNCOMiNG,Izzy,MenaceIISociety,jiinx,SiMPLE,CherryBomb,bigguy79\r\nranbailey,ViSiON,UnKnOwN,YanKeeS,COPYxRIGHT,THC,VAiN,ACAB,DRs\r\nLKRG,Kingstoner,SiMPLE,TiTAN,cadance,PLAYNOW\r\nUnevano,BigVik,Rapeseed,SAFC,goldadvance,KaN1vE,Pinnz,Wayne,HiGH\r\nSeeN,jtr,Limey,ICONiK,TED,rkofan,mrtoke09\r\nMr Hive\r\n\r\na special hi to my retarded friend flamingturd \r\noh and toplapbiz i guess there will be real line lol\r\noh and btw greetz are for people you respect not people you brown nose\r\nok wasnt going to do it but got passed vobs from a friend \r\nwith all the people asking me \r\nthe phone calls the random people in the street figured i might as well do it \r\ni mean considering what is out \r\n\r\n\r\n\r\nLOOKING FOR ANYTHING YOU WANT TO LOOK AND SOUND BETTER\r\n\r\nCOME FIND US WE DONT BITE \r\n  \r\n\r\n \nhttp://extraimago.com/image/C5T \nhttp://extraimago.com/image/C5j \nhttp://extraimago.com/image/C5n \nhttp://extraimago.com/image/C5s \nhttp://extraimago.com/image/C57 \nhttp://extraimago.com/image/C5c \nhttp://extraimago.com/image/C51 \nhttp://extraimago.com/image/C5E","torrent":{"xt":"urn:btih:74ee843054c62960fe2c3b34779532c9aec053a2","amp;dn":"Spectre.2015.REAL.HD-TS.XVID.AC3.HQ.Hive-CM8","amp;tr":["udp%3A%2F%2Ftracker.leechers-paradise.org%3A6969","udp%3A%2F%2Fzer0day.ch%3A1337","udp%3A%2F%2Fopen.demonii.com%3A1337","udp%3A%2F%2Ftracker.coppersurfer.tk%3A6969","udp%3A%2F%2Fexodus.desync.com%3A6969"],"infoHash":"74ee843054c62960fe2c3b34779532c9aec053a2","infoHashBuffer":{"type":"Buffer","data":[116,238,132,48,84,198,41,96,254,44,59,52,119,149,50,201,174,192,83,162]},"announce":[],"urlList":[]}}